<svg width="46" height="46" viewBox="0 0 46 46" fill="none" xmlns="http://www.w3.org/2000/svg">
<circle cx="23" cy="23" r="23" fill="#00A3FF"/>
<path fill-rule="evenodd" clip-rule="evenodd" d="M19.4822 10.2822C19.1833 10.2822 18.941 10.5245 18.941 10.8234V18.941H10.8234C10.5245 18.941 10.2822 19.1833 10.2822 19.4822V26.5175C10.2822 26.8164 10.5245 27.0587 10.8234 27.0587H18.941V35.1763C18.941 35.4752 19.1833 35.7175 19.4822 35.7175H26.5175C26.8164 35.7175 27.0587 35.4752 27.0587 35.1763V27.0587H35.1763C35.4752 27.0587 35.7175 26.8164 35.7175 26.5175V19.4822C35.7175 19.1833 35.4752 18.941 35.1763 18.941H27.0587V10.8234C27.0587 10.5245 26.8164 10.2822 26.5175 10.2822H19.4822Z" fill="white"/>
<circle cx="23" cy="23" r="23" fill="#00A3FF"/>
<circle cx="22.9999" cy="15.9647" r="6.22353" fill="white"/>
<path fill-rule="evenodd" clip-rule="evenodd" d="M23.2703 38.9645C30.1446 38.9645 35.7174 35.9358 35.7174 32.1998C35.7174 28.4637 30.1446 25.4351 23.2703 25.4351C16.396 25.4351 10.8232 28.4637 10.8232 32.1998C10.8232 35.9358 16.396 38.9645 23.2703 38.9645ZM21.5432 26.7477C21.5432 26.6205 21.6463 26.5174 21.7734 26.5174H24.7672C24.8944 26.5174 24.9975 26.6205 24.9975 26.7477V30.202H28.4518C28.579 30.202 28.6821 30.3051 28.6821 30.4323V33.426C28.6821 33.5532 28.579 33.6563 28.4518 33.6563H24.9975V37.1107C24.9975 37.2378 24.8944 37.3409 24.7672 37.3409H21.7734C21.6463 37.3409 21.5432 37.2378 21.5432 37.1107V33.6563H18.0888C17.9616 33.6563 17.8585 33.5532 17.8585 33.426V30.4323C17.8585 30.3051 17.9616 30.202 18.0888 30.202H21.5432V26.7477Z" fill="white"/>
</svg>
