<svg width="46" height="46" viewBox="0 0 46 46" fill="none" xmlns="http://www.w3.org/2000/svg">
<circle cx="23" cy="23" r="23" fill="#CDCDCD"/>
<circle cx="23" cy="15.9647" r="6.22353" fill="white"/>
<path fill-rule="evenodd" clip-rule="evenodd" d="M23.2706 38.9647C30.1449 38.9647 35.7177 35.9361 35.7177 32.2C35.7177 28.464 30.1449 25.4353 23.2706 25.4353C16.3963 25.4353 10.8235 28.464 10.8235 32.2C10.8235 35.9361 16.3963 38.9647 23.2706 38.9647ZM21.5435 26.7479C21.5435 26.6208 21.6466 26.5177 21.7738 26.5177H24.7675C24.8947 26.5177 24.9978 26.6208 24.9978 26.7479V30.2022H28.4521C28.5793 30.2022 28.6824 30.3053 28.6824 30.4325V33.4263C28.6824 33.5535 28.5793 33.6566 28.4521 33.6566H24.9978V37.1109C24.9978 37.2381 24.8947 37.3412 24.7675 37.3412H21.7738C21.6466 37.3412 21.5435 37.2381 21.5435 37.1109V33.6566H18.0891C17.9619 33.6566 17.8588 33.5535 17.8588 33.4263V30.4325C17.8588 30.3053 17.9619 30.2022 18.0891 30.2022H21.5435V26.7479Z" fill="white"/>
</svg>
