<svg width="46" height="46" viewBox="0 0 46 46" fill="none" xmlns="http://www.w3.org/2000/svg">
<circle cx="23" cy="23" r="23" fill="#CDCDCD"/>
<path fill-rule="evenodd" clip-rule="evenodd" d="M33.586 25.9316H28.9843L25.1095 30.7006C24.8769 30.9869 24.5017 31.116 24.1422 31.0335C23.7827 30.9509 23.5014 30.6712 23.4169 30.3121L21.3171 21.3877L18.0735 25.5581C17.8902 25.7937 17.6084 25.9316 17.3098 25.9316H13.5841C16.6592 29.3012 24.1809 36.1782 24.1809 36.1782C24.1809 36.1782 30.775 29.3642 33.586 25.9316ZM34.9084 23.9967H28.5238C28.2325 23.9967 27.9567 24.128 27.773 24.3541L24.8494 27.9524L22.7372 18.9753C22.6518 18.6127 22.3658 18.3312 22.0018 18.2517C21.6378 18.1723 21.2605 18.3089 21.0318 18.603L16.8367 23.9967H12.1717C11.657 23.0456 11.3647 21.9564 11.3647 20.799C11.3647 17.083 14.3772 14.0706 18.0932 14.0706C20.3329 14.0706 22.317 15.1649 23.54 16.8481C24.763 15.1649 26.7472 14.0706 28.9869 14.0706C32.7029 14.0706 35.7153 17.083 35.7153 20.799C35.7153 21.9564 35.4231 23.0455 34.9084 23.9967Z" fill="white"/>
</svg>
