<svg width="46" height="46" viewBox="0 0 46 46" fill="none" xmlns="http://www.w3.org/2000/svg">
<circle cx="23" cy="23" r="23" fill="#00A3FF"/>
<path fill-rule="evenodd" clip-rule="evenodd" d="M33.586 25.9316H28.8064L24.9316 30.7006C24.6989 30.9869 24.3238 31.116 23.9643 31.0335C23.6048 30.9509 23.3235 30.6712 23.239 30.3121L21.1391 21.3877L17.8955 25.5581C17.7123 25.7937 17.4304 25.9316 17.1319 25.9316H13.5841C16.6592 29.3012 24.1809 36.1782 24.1809 36.1782C24.1809 36.1782 30.775 29.3642 33.586 25.9316ZM34.9084 23.9967H28.3459C28.0546 23.9967 27.7788 24.128 27.5951 24.3541L24.6715 27.9524L22.5592 18.9753C22.4739 18.6127 22.1879 18.3312 21.8239 18.2517C21.4599 18.1723 21.0826 18.3089 20.8539 18.603L16.6587 23.9967H12.1717C11.657 23.0456 11.3647 21.9564 11.3647 20.799C11.3647 17.083 14.3772 14.0706 18.0932 14.0706C20.3329 14.0706 22.317 15.1649 23.54 16.8481C24.763 15.1649 26.7472 14.0706 28.9869 14.0706C32.7029 14.0706 35.7153 17.083 35.7153 20.799C35.7153 21.9564 35.4231 23.0455 34.9084 23.9967Z" fill="white"/>
</svg>
